# xmcd CD database file
#
# Track frame offsets:
#	183
#	14728
#	27583
#	40375
#	53453
#	67438
#	77775
#	88555
#	101418
#	108740
#	118615
#	131940
#	144000
#	157638
#
# Disc length: 2246 seconds
#
# Revision: 9
# Processed by: cddbd v1.5.2PL0 Copyright (c) Steve Scherf et al.
# Submitted via: CDex 1.70beta2
#
DISCID=bd08c40e
DTITLE=John Mayall and The Bluesbreakers - A Hard Road
DYEAR=1967
DGENRE=Pop - Rock - Blues
TTITLE0=A Hard Road
TTITLE1=It's Over
TTITLE2=You Don't Love Me
TTITLE3=The Stumble
TTITLE4=Another Kinda Love
TTITLE5=Hit the Highway
TTITLE6=Leaping Christine
TTITLE7=Dust My Blues
TTITLE8=There's Always Work
TTITLE9=The Same Way
TTITLE10=The Supernatural
TTITLE11=Top of the Hill
TTITLE12=Someday After Awhile (You'll Be Sorry)
TTITLE13=Living Alone
EXTD=YEAR: 1967
EXTT0=
EXTT1=
EXTT2=
EXTT3=
EXTT4=
EXTT5=
EXTT6=
EXTT7=
EXTT8=
EXTT9=
EXTT10=
EXTT11=
EXTT12=
EXTT13=
PLAYORDER=
